<svg width="90" height="90" viewBox="0 0 90 90" fill="none" xmlns="http://www.w3.org/2000/svg">
<circle cx="44.6487" cy="44.6487" r="44.6487" fill="#6D30E2"/>
<path d="M26.1777 39.3929V35.7755H27.405C29.3429 35.7755 30.7209 35.3879 31.5391 34.6128C32.3789 33.8376 32.7987 32.8579 32.7987 31.6737V31.06H36.9975V57.512H32.0559V39.3929H26.1777ZM44.6521 37.8426C45.1473 35.6248 46.0947 33.8807 47.4943 32.6103C48.9154 31.3184 50.7456 30.6724 52.985 30.6724C55.375 30.6724 57.3236 31.3615 58.8309 32.7395C60.3381 34.096 61.0917 35.937 61.0917 38.2625C61.0917 39.7697 60.7472 41.1262 60.0582 42.332C59.3692 43.5378 58.3895 44.7651 57.1191 46.014C56.8176 46.3154 56.2686 46.843 55.4719 47.5966C54.6967 48.3502 54.0939 48.9531 53.6632 49.4053C53.2541 49.8359 52.7696 50.4173 52.2098 51.1493C51.65 51.8814 51.1763 52.6028 50.7887 53.3133H60.9948V57.2537H44.9428C44.9428 56.1771 45.1043 55.1005 45.4272 54.0239C45.7717 52.9473 46.1593 52.0214 46.59 51.2462C47.0421 50.4496 47.6773 49.5775 48.4955 48.6301C49.3138 47.6612 49.992 46.8968 50.5303 46.337C51.0901 45.7771 51.8545 45.045 52.8235 44.1407C53.0603 43.9038 53.2433 43.7316 53.3725 43.6239C55.2027 41.9014 56.1179 40.0819 56.1179 38.1656C56.1179 37.089 55.8164 36.2385 55.2135 35.614C54.6322 34.9681 53.8678 34.6451 52.9204 34.6451C50.7887 34.6451 49.3891 36.12 48.7216 39.0699L44.6521 37.8426Z" fill="white"/>
</svg>
